<svg width="110" height="20" viewBox="0 0 110 20" fill="none" xmlns="http://www.w3.org/2000/svg">
<g opacity="0.6" clip-path="url(#clip0_0_545)">
<path d="M10.0013 1.66602C12.2655 1.66602 12.548 1.67435 13.4363 1.71602C14.3238 1.75768 14.928 1.89685 15.4596 2.10352C16.0096 2.31518 16.473 2.60185 16.9363 3.06435C17.36 3.48093 17.6879 3.98484 17.8971 4.54102C18.103 5.07185 18.243 5.67685 18.2846 6.56435C18.3238 7.45268 18.3346 7.73518 18.3346 9.99935C18.3346 12.2635 18.3263 12.546 18.2846 13.4343C18.243 14.3218 18.103 14.926 17.8971 15.4577C17.6885 16.0142 17.3606 16.5182 16.9363 16.9344C16.5196 17.3579 16.0157 17.6858 15.4596 17.8952C14.9288 18.101 14.3238 18.241 13.4363 18.2827C12.548 18.3218 12.2655 18.3327 10.0013 18.3327C7.73714 18.3327 7.45464 18.3244 6.5663 18.2827C5.6788 18.241 5.07464 18.101 4.54297 17.8952C3.98657 17.6864 3.48257 17.3585 3.0663 16.9344C2.64247 16.5178 2.31458 16.0139 2.10547 15.4577C1.8988 14.9268 1.75964 14.3218 1.71797 13.4343C1.6788 12.546 1.66797 12.2635 1.66797 9.99935C1.66797 7.73518 1.6763 7.45268 1.71797 6.56435C1.75964 5.67602 1.8988 5.07268 2.10547 4.54102C2.314 3.9845 2.64197 3.48045 3.0663 3.06435C3.48269 2.64037 3.98666 2.31246 4.54297 2.10352C5.07464 1.89685 5.67797 1.75768 6.5663 1.71602C7.45464 1.67685 7.73714 1.66602 10.0013 1.66602ZM10.0013 5.83268C8.89623 5.83268 7.83643 6.27167 7.05502 7.05307C6.27362 7.83447 5.83464 8.89428 5.83464 9.99935C5.83464 11.1044 6.27362 12.1642 7.05502 12.9456C7.83643 13.727 8.89623 14.166 10.0013 14.166C11.1064 14.166 12.1662 13.727 12.9476 12.9456C13.729 12.1642 14.168 11.1044 14.168 9.99935C14.168 8.89428 13.729 7.83447 12.9476 7.05307C12.1662 6.27167 11.1064 5.83268 10.0013 5.83268ZM15.418 5.62435C15.418 5.34808 15.3082 5.08313 15.1129 4.88778C14.9175 4.69243 14.6526 4.58268 14.3763 4.58268C14.1 4.58268 13.8351 4.69243 13.6397 4.88778C13.4444 5.08313 13.3346 5.34808 13.3346 5.62435C13.3346 5.90062 13.4444 6.16557 13.6397 6.36092C13.8351 6.55627 14.1 6.66602 14.3763 6.66602C14.6526 6.66602 14.9175 6.55627 15.1129 6.36092C15.3082 6.16557 15.418 5.90062 15.418 5.62435ZM10.0013 7.49935C10.6643 7.49935 11.3002 7.76274 11.7691 8.23158C12.2379 8.70042 12.5013 9.33631 12.5013 9.99935C12.5013 10.6624 12.2379 11.2983 11.7691 11.7671C11.3002 12.236 10.6643 12.4993 10.0013 12.4993C9.33826 12.4993 8.70238 12.236 8.23354 11.7671C7.76469 11.2983 7.5013 10.6624 7.5013 9.99935C7.5013 9.33631 7.76469 8.70042 8.23354 8.23158C8.70238 7.76274 9.33826 7.49935 10.0013 7.49935Z" fill="#333333"/>
</g>
<path opacity="0.6" d="M26.68 4.8H28.28V16H26.68V4.8ZM35.9371 7.44C37.0145 7.44 37.8678 7.75467 38.4971 8.384C39.1371 9.00267 39.4571 9.91467 39.4571 11.12V16H37.9211V11.296C37.9211 10.4747 37.7238 9.856 37.3291 9.44C36.9345 9.024 36.3691 8.816 35.6331 8.816C34.8011 8.816 34.1451 9.06133 33.6651 9.552C33.1851 10.032 32.9451 10.7253 32.9451 11.632V16H31.4091V7.52H32.8811V8.8C33.1905 8.36267 33.6065 8.02667 34.1291 7.792C34.6625 7.55733 35.2651 7.44 35.9371 7.44ZM44.7318 16.096C44.0384 16.096 43.3718 16.0053 42.7318 15.824C42.0918 15.632 41.5904 15.392 41.2278 15.104L41.8678 13.888C42.2411 14.1547 42.6944 14.368 43.2278 14.528C43.7611 14.688 44.2998 14.768 44.8438 14.768C46.1878 14.768 46.8598 14.384 46.8598 13.616C46.8598 13.36 46.7691 13.1573 46.5878 13.008C46.4064 12.8587 46.1771 12.752 45.8998 12.688C45.6331 12.6133 45.2491 12.5333 44.7478 12.448C44.0651 12.3413 43.5051 12.2187 43.0678 12.08C42.6411 11.9413 42.2731 11.7067 41.9638 11.376C41.6544 11.0453 41.4998 10.5813 41.4998 9.984C41.4998 9.216 41.8198 8.60267 42.4598 8.144C43.0998 7.67467 43.9584 7.44 45.0358 7.44C45.6011 7.44 46.1664 7.50933 46.7318 7.648C47.2971 7.78667 47.7611 7.97333 48.1238 8.208L47.4678 9.424C46.7744 8.976 45.9584 8.752 45.0198 8.752C44.3691 8.752 43.8731 8.85867 43.5318 9.072C43.1904 9.28533 43.0198 9.568 43.0198 9.92C43.0198 10.1973 43.1158 10.416 43.3078 10.576C43.4998 10.736 43.7344 10.8533 44.0118 10.928C44.2998 11.0027 44.6998 11.088 45.2118 11.184C45.8944 11.3013 46.4438 11.4293 46.8598 11.568C47.2864 11.696 47.6491 11.92 47.9478 12.24C48.2464 12.56 48.3958 13.008 48.3958 13.584C48.3958 14.352 48.0651 14.9653 47.4038 15.424C46.7531 15.872 45.8624 16.096 44.7318 16.096ZM55.0834 15.504C54.8594 15.696 54.582 15.8453 54.2514 15.952C53.9207 16.048 53.5794 16.096 53.2274 16.096C52.374 16.096 51.7127 15.8667 51.2434 15.408C50.774 14.9493 50.5394 14.2933 50.5394 13.44V8.784H49.0994V7.52H50.5394V5.664H52.0754V7.52H54.5074V8.784H52.0754V13.376C52.0754 13.8347 52.1874 14.1867 52.4114 14.432C52.646 14.6773 52.9767 14.8 53.4034 14.8C53.8727 14.8 54.2727 14.6667 54.6034 14.4L55.0834 15.504ZM60.0284 7.44C61.2017 7.44 62.0977 7.728 62.7164 8.304C63.3457 8.88 63.6604 9.73867 63.6604 10.88V16H62.2044V14.88C61.9484 15.2747 61.5804 15.5787 61.1004 15.792C60.631 15.9947 60.071 16.096 59.4204 16.096C58.471 16.096 57.7084 15.8667 57.1324 15.408C56.567 14.9493 56.2844 14.3467 56.2844 13.6C56.2844 12.8533 56.5564 12.256 57.1004 11.808C57.6444 11.3493 58.5084 11.12 59.6924 11.12H62.1244V10.816C62.1244 10.1547 61.9324 9.648 61.5484 9.296C61.1644 8.944 60.599 8.768 59.8524 8.768C59.351 8.768 58.8604 8.85333 58.3804 9.024C57.9004 9.184 57.495 9.40267 57.1644 9.68L56.5244 8.528C56.9617 8.176 57.4844 7.90933 58.0924 7.728C58.7004 7.536 59.3457 7.44 60.0284 7.44ZM59.6764 14.912C60.263 14.912 60.7697 14.784 61.1964 14.528C61.623 14.2613 61.9324 13.888 62.1244 13.408V12.224H59.7564C58.455 12.224 57.8044 12.6613 57.8044 13.536C57.8044 13.9627 57.9697 14.2987 58.3004 14.544C58.631 14.7893 59.0897 14.912 59.6764 14.912ZM74.6618 7.52V14.848C74.6618 16.3307 74.2938 17.424 73.5578 18.128C72.8218 18.8427 71.7231 19.2 70.2618 19.2C69.4618 19.2 68.6991 19.088 67.9738 18.864C67.2484 18.6507 66.6618 18.3413 66.2138 17.936L66.9498 16.752C67.3444 17.0933 67.8298 17.36 68.4058 17.552C68.9924 17.7547 69.5951 17.856 70.2138 17.856C71.2058 17.856 71.9364 17.6213 72.4058 17.152C72.8858 16.6827 73.1258 15.968 73.1258 15.008V14.336C72.7631 14.7733 72.3151 15.104 71.7818 15.328C71.2591 15.5413 70.6884 15.648 70.0698 15.648C69.2591 15.648 68.5231 15.4773 67.8618 15.136C67.2111 14.784 66.6991 14.2987 66.3258 13.68C65.9524 13.0507 65.7658 12.336 65.7658 11.536C65.7658 10.736 65.9524 10.0267 66.3258 9.408C66.6991 8.77867 67.2111 8.29333 67.8618 7.952C68.5231 7.61067 69.2591 7.44 70.0698 7.44C70.7098 7.44 71.3018 7.55733 71.8458 7.792C72.4004 8.02667 72.8538 8.37333 73.2058 8.832V7.52H74.6618ZM70.2458 14.304C70.8004 14.304 71.2964 14.1867 71.7338 13.952C72.1818 13.7173 72.5284 13.392 72.7738 12.976C73.0298 12.5493 73.1578 12.0693 73.1578 11.536C73.1578 10.7147 72.8858 10.0533 72.3418 9.552C71.7978 9.04 71.0991 8.784 70.2458 8.784C69.3818 8.784 68.6778 9.04 68.1338 9.552C67.5898 10.0533 67.3178 10.7147 67.3178 11.536C67.3178 12.0693 67.4404 12.5493 67.6858 12.976C67.9418 13.392 68.2884 13.7173 68.7258 13.952C69.1738 14.1867 69.6804 14.304 70.2458 14.304ZM79.0686 8.944C79.3353 8.45333 79.73 8.08 80.2526 7.824C80.7753 7.568 81.41 7.44 82.1566 7.44V8.928C82.0713 8.91733 81.954 8.912 81.8046 8.912C80.9726 8.912 80.3166 9.16267 79.8366 9.664C79.3673 10.1547 79.1326 10.8587 79.1326 11.776V16H77.5966V7.52H79.0686V8.944ZM87.1221 7.44C88.2955 7.44 89.1915 7.728 89.8101 8.304C90.4395 8.88 90.7541 9.73867 90.7541 10.88V16H89.2981V14.88C89.0421 15.2747 88.6741 15.5787 88.1941 15.792C87.7248 15.9947 87.1648 16.096 86.5141 16.096C85.5648 16.096 84.8021 15.8667 84.2261 15.408C83.6608 14.9493 83.3781 14.3467 83.3781 13.6C83.3781 12.8533 83.6501 12.256 84.1941 11.808C84.7381 11.3493 85.6021 11.12 86.7861 11.12H89.2181V10.816C89.2181 10.1547 89.0261 9.648 88.6421 9.296C88.2581 8.944 87.6928 8.768 86.9461 8.768C86.4448 8.768 85.9541 8.85333 85.4741 9.024C84.9941 9.184 84.5888 9.40267 84.2581 9.68L83.6181 8.528C84.0555 8.176 84.5781 7.90933 85.1861 7.728C85.7941 7.536 86.4395 7.44 87.1221 7.44ZM86.7701 14.912C87.3568 14.912 87.8635 14.784 88.2901 14.528C88.7168 14.2613 89.0261 13.888 89.2181 13.408V12.224H86.8501C85.5488 12.224 84.8981 12.6613 84.8981 13.536C84.8981 13.9627 85.0635 14.2987 85.3941 14.544C85.7248 14.7893 86.1835 14.912 86.7701 14.912ZM104.205 7.44C105.271 7.44 106.114 7.74933 106.733 8.368C107.362 8.98667 107.677 9.904 107.677 11.12V16H106.141V11.296C106.141 10.4747 105.949 9.856 105.565 9.44C105.191 9.024 104.653 8.816 103.949 8.816C103.17 8.816 102.551 9.06133 102.093 9.552C101.634 10.032 101.405 10.7253 101.405 11.632V16H99.8686V11.296C99.8686 10.4747 99.6766 9.856 99.2926 9.44C98.9193 9.024 98.3806 8.816 97.6766 8.816C96.898 8.816 96.2793 9.06133 95.8206 9.552C95.362 10.032 95.1326 10.7253 95.1326 11.632V16H93.5966V7.52H95.0686V8.784C95.378 8.34667 95.7833 8.016 96.2846 7.792C96.786 7.55733 97.3566 7.44 97.9966 7.44C98.658 7.44 99.2446 7.57333 99.7566 7.84C100.269 8.10667 100.663 8.496 100.941 9.008C101.261 8.51733 101.703 8.13333 102.269 7.856C102.845 7.57867 103.49 7.44 104.205 7.44Z" fill="black"/>
<defs>
<clipPath id="clip0_0_545">
<rect width="20" height="20" fill="white"/>
</clipPath>
</defs>
</svg>
