<svg width="102" height="20" viewBox="0 0 102 20" fill="none" xmlns="http://www.w3.org/2000/svg">
<g opacity="0.6" clip-path="url(#clip0_0_540)">
<path d="M10.0013 18.3327C5.3988 18.3327 1.66797 14.6018 1.66797 9.99935C1.66797 5.39685 5.3988 1.66602 10.0013 1.66602C14.6038 1.66602 18.3346 5.39685 18.3346 9.99935C18.3346 14.6018 14.6038 18.3327 10.0013 18.3327ZM7.40964 10.9743L7.42047 10.9685L8.14547 13.3602C8.2388 13.6194 8.36714 13.666 8.52297 13.6444C8.67964 13.6235 8.76214 13.5393 8.86464 13.441L9.85464 12.4844L11.9796 14.0577C12.368 14.2719 12.6471 14.161 12.7438 13.6977L14.1246 7.17935C14.2771 6.57268 14.0105 6.32935 13.5396 6.52268L5.4288 9.65602C4.87547 9.87768 4.8788 10.1877 5.3288 10.3252L7.40964 10.9752V10.9743Z" fill="#333333"/>
</g>
<path opacity="0.6" d="M28.904 6.192H25.064V4.8H34.328V6.192H30.488V16H28.904V6.192ZM42.6356 11.808C42.6356 11.9253 42.625 12.08 42.6036 12.272H35.7236C35.8196 13.0187 36.145 13.6213 36.6996 14.08C37.265 14.528 37.9636 14.752 38.7956 14.752C39.809 14.752 40.625 14.4107 41.2436 13.728L42.0916 14.72C41.7076 15.168 41.2276 15.5093 40.6516 15.744C40.0863 15.9787 39.4516 16.096 38.7476 16.096C37.8516 16.096 37.057 15.9147 36.3636 15.552C35.6703 15.1787 35.1316 14.6613 34.7476 14C34.3743 13.3387 34.1876 12.592 34.1876 11.76C34.1876 10.9387 34.369 10.1973 34.7316 9.536C35.105 8.87467 35.6116 8.36267 36.2516 8C36.9023 7.62667 37.633 7.44 38.4436 7.44C39.2543 7.44 39.9743 7.62667 40.6036 8C41.2436 8.36267 41.7396 8.87467 42.0916 9.536C42.4543 10.1973 42.6356 10.9547 42.6356 11.808ZM38.4436 8.736C37.7076 8.736 37.089 8.96 36.5876 9.408C36.097 9.856 35.809 10.4427 35.7236 11.168H41.1636C41.0783 10.4533 40.785 9.872 40.2836 9.424C39.793 8.96533 39.1796 8.736 38.4436 8.736ZM44.7685 4.128H46.3045V16H44.7685V4.128ZM56.9013 11.808C56.9013 11.9253 56.8906 12.08 56.8693 12.272H49.9893C50.0853 13.0187 50.4106 13.6213 50.9653 14.08C51.5306 14.528 52.2293 14.752 53.0613 14.752C54.0746 14.752 54.8906 14.4107 55.5093 13.728L56.3573 14.72C55.9733 15.168 55.4933 15.5093 54.9173 15.744C54.3519 15.9787 53.7173 16.096 53.0133 16.096C52.1173 16.096 51.3226 15.9147 50.6293 15.552C49.9359 15.1787 49.3973 14.6613 49.0133 14C48.6399 13.3387 48.4533 12.592 48.4533 11.76C48.4533 10.9387 48.6346 10.1973 48.9973 9.536C49.3706 8.87467 49.8773 8.36267 50.5173 8C51.1679 7.62667 51.8986 7.44 52.7093 7.44C53.5199 7.44 54.2399 7.62667 54.8693 8C55.5093 8.36267 56.0053 8.87467 56.3573 9.536C56.7199 10.1973 56.9013 10.9547 56.9013 11.808ZM52.7093 8.736C51.9733 8.736 51.3546 8.96 50.8533 9.408C50.3626 9.856 50.0746 10.4427 49.9893 11.168H55.4293C55.3439 10.4533 55.0506 9.872 54.5493 9.424C54.0586 8.96533 53.4453 8.736 52.7093 8.736ZM67.1461 7.52V14.848C67.1461 16.3307 66.7781 17.424 66.0421 18.128C65.3061 18.8427 64.2075 19.2 62.7461 19.2C61.9461 19.2 61.1835 19.088 60.4581 18.864C59.7328 18.6507 59.1461 18.3413 58.6981 17.936L59.4341 16.752C59.8288 17.0933 60.3141 17.36 60.8901 17.552C61.4768 17.7547 62.0795 17.856 62.6981 17.856C63.6901 17.856 64.4208 17.6213 64.8901 17.152C65.3701 16.6827 65.6101 15.968 65.6101 15.008V14.336C65.2475 14.7733 64.7995 15.104 64.2661 15.328C63.7435 15.5413 63.1728 15.648 62.5541 15.648C61.7435 15.648 61.0075 15.4773 60.3461 15.136C59.6955 14.784 59.1835 14.2987 58.8101 13.68C58.4368 13.0507 58.2501 12.336 58.2501 11.536C58.2501 10.736 58.4368 10.0267 58.8101 9.408C59.1835 8.77867 59.6955 8.29333 60.3461 7.952C61.0075 7.61067 61.7435 7.44 62.5541 7.44C63.1941 7.44 63.7861 7.55733 64.3301 7.792C64.8848 8.02667 65.3381 8.37333 65.6901 8.832V7.52H67.1461ZM62.7301 14.304C63.2848 14.304 63.7808 14.1867 64.2181 13.952C64.6661 13.7173 65.0128 13.392 65.2581 12.976C65.5141 12.5493 65.6421 12.0693 65.6421 11.536C65.6421 10.7147 65.3701 10.0533 64.8261 9.552C64.2821 9.04 63.5835 8.784 62.7301 8.784C61.8661 8.784 61.1621 9.04 60.6181 9.552C60.0741 10.0533 59.8021 10.7147 59.8021 11.536C59.8021 12.0693 59.9248 12.5493 60.1701 12.976C60.4261 13.392 60.7728 13.7173 61.2101 13.952C61.6581 14.1867 62.1648 14.304 62.7301 14.304ZM71.553 8.944C71.8197 8.45333 72.2143 8.08 72.737 7.824C73.2597 7.568 73.8943 7.44 74.641 7.44V8.928C74.5557 8.91733 74.4383 8.912 74.289 8.912C73.457 8.912 72.801 9.16267 72.321 9.664C71.8517 10.1547 71.617 10.8587 71.617 11.776V16H70.081V7.52H71.553V8.944ZM79.6065 7.44C80.7798 7.44 81.6758 7.728 82.2945 8.304C82.9238 8.88 83.2385 9.73867 83.2385 10.88V16H81.7825V14.88C81.5265 15.2747 81.1585 15.5787 80.6785 15.792C80.2092 15.9947 79.6492 16.096 78.9985 16.096C78.0492 16.096 77.2865 15.8667 76.7105 15.408C76.1452 14.9493 75.8625 14.3467 75.8625 13.6C75.8625 12.8533 76.1345 12.256 76.6785 11.808C77.2225 11.3493 78.0865 11.12 79.2705 11.12H81.7025V10.816C81.7025 10.1547 81.5105 9.648 81.1265 9.296C80.7425 8.944 80.1772 8.768 79.4305 8.768C78.9292 8.768 78.4385 8.85333 77.9585 9.024C77.4785 9.184 77.0732 9.40267 76.7425 9.68L76.1025 8.528C76.5398 8.176 77.0625 7.90933 77.6705 7.728C78.2785 7.536 78.9238 7.44 79.6065 7.44ZM79.2545 14.912C79.8412 14.912 80.3478 14.784 80.7745 14.528C81.2012 14.2613 81.5105 13.888 81.7025 13.408V12.224H79.3345C78.0332 12.224 77.3825 12.6613 77.3825 13.536C77.3825 13.9627 77.5478 14.2987 77.8785 14.544C78.2092 14.7893 78.6678 14.912 79.2545 14.912ZM96.689 7.44C97.7557 7.44 98.5983 7.74933 99.217 8.368C99.8463 8.98667 100.161 9.904 100.161 11.12V16H98.625V11.296C98.625 10.4747 98.433 9.856 98.049 9.44C97.6757 9.024 97.137 8.816 96.433 8.816C95.6543 8.816 95.0357 9.06133 94.577 9.552C94.1183 10.032 93.889 10.7253 93.889 11.632V16H92.353V11.296C92.353 10.4747 92.161 9.856 91.777 9.44C91.4037 9.024 90.865 8.816 90.161 8.816C89.3823 8.816 88.7637 9.06133 88.305 9.552C87.8463 10.032 87.617 10.7253 87.617 11.632V16H86.081V7.52H87.553V8.784C87.8623 8.34667 88.2677 8.016 88.769 7.792C89.2703 7.55733 89.841 7.44 90.481 7.44C91.1423 7.44 91.729 7.57333 92.241 7.84C92.753 8.10667 93.1477 8.496 93.425 9.008C93.745 8.51733 94.1877 8.13333 94.753 7.856C95.329 7.57867 95.9743 7.44 96.689 7.44Z" fill="black"/>
<defs>
<clipPath id="clip0_0_540">
<rect width="20" height="20" fill="white"/>
</clipPath>
</defs>
</svg>
